<svg width="140" height="22" viewBox="0 0 140 22" fill="none" xmlns="http://www.w3.org/2000/svg">
<path d="M39.3625 17.5134C38.4105 17.5134 37.5299 17.3587 36.7207 17.0493C35.9234 16.728 35.2273 16.2817 34.6323 15.7105C34.0492 15.1393 33.591 14.467 33.2578 13.6935C32.9365 12.92 32.7759 12.0751 32.7759 11.1588C32.7759 10.2425 32.9365 9.39756 33.2578 8.62406C33.591 7.85056 34.0551 7.17821 34.6501 6.60701C35.2451 6.03581 35.9413 5.59551 36.7386 5.28611C37.5478 4.96481 38.4284 4.80416 39.3804 4.80416C40.3324 4.80416 41.2011 4.95291 41.9865 5.25041C42.7838 5.54791 43.4621 6.00011 44.0214 6.60701L43.2003 7.44596C42.6767 6.92236 42.0995 6.54751 41.4688 6.32141C40.8381 6.09531 40.1598 5.98226 39.4339 5.98226C38.6604 5.98226 37.9464 6.11316 37.2919 6.37496C36.6493 6.62486 36.0841 6.98781 35.5962 7.46381C35.1202 7.92791 34.7453 8.47531 34.4716 9.10601C34.2098 9.72481 34.0789 10.4091 34.0789 11.1588C34.0789 11.8966 34.2098 12.5808 34.4716 13.2115C34.7453 13.8422 35.1202 14.3956 35.5962 14.8716C36.0841 15.3357 36.6493 15.6986 37.2919 15.9604C37.9464 16.2103 38.6545 16.3353 39.4161 16.3353C40.1301 16.3353 40.8024 16.2282 41.4331 16.014C42.0757 15.7998 42.6648 15.4368 43.2003 14.9251L43.95 15.9247C43.355 16.4483 42.6588 16.847 41.8615 17.1207C41.0642 17.3825 40.2312 17.5134 39.3625 17.5134ZM42.6826 15.7641V11.1588H43.95V15.9247L42.6826 15.7641ZM51.0442 17.4955C50.0684 17.4955 49.2116 17.2932 48.4738 16.8886C47.736 16.4721 47.1589 15.9069 46.7424 15.1929C46.3259 14.467 46.1176 13.6399 46.1176 12.7117C46.1176 11.7835 46.314 10.9624 46.7067 10.2484C47.1113 9.53441 47.6587 8.97511 48.3489 8.57051C49.051 8.15401 49.8364 7.94576 50.7051 7.94576C51.5857 7.94576 52.3651 8.14806 53.0434 8.55266C53.7336 8.94536 54.2751 9.50466 54.6678 10.2306C55.0605 10.9446 55.2568 11.7716 55.2568 12.7117C55.2568 12.7712 55.2509 12.8367 55.239 12.9081C55.239 12.9676 55.239 13.033 55.239 13.1044H47.0815V12.1584H54.5607L54.0609 12.5332C54.0609 11.8549 53.9121 11.254 53.6146 10.7304C53.329 10.1949 52.9363 9.77836 52.4365 9.48086C51.9367 9.18336 51.3596 9.03461 50.7051 9.03461C50.0625 9.03461 49.4853 9.18336 48.9736 9.48086C48.4619 9.77836 48.0633 10.1949 47.7777 10.7304C47.4921 11.2659 47.3493 11.8787 47.3493 12.5689V12.7653C47.3493 13.4793 47.504 14.11 47.8134 14.6574C48.1347 15.1929 48.575 15.6153 49.1343 15.9247C49.7055 16.2222 50.354 16.371 51.0799 16.371C51.6511 16.371 52.1807 16.2698 52.6686 16.0675C53.1684 15.8652 53.5968 15.5558 53.9538 15.1393L54.6678 15.9604C54.2513 16.4602 53.7277 16.841 53.097 17.1028C52.4782 17.3646 51.7939 17.4955 51.0442 17.4955ZM60.4425 17.4955C59.5619 17.4955 58.8836 17.2575 58.4076 16.7815C57.9316 16.3055 57.6936 15.6332 57.6936 14.7645V5.96441H58.961V14.6931C58.961 15.2405 59.0978 15.6629 59.3715 15.9604C59.6571 16.2579 60.0617 16.4067 60.5853 16.4067C61.1446 16.4067 61.6087 16.246 61.9776 15.9247L62.4239 16.8351C62.174 17.0612 61.8705 17.2278 61.5135 17.3349C61.1684 17.442 60.8114 17.4955 60.4425 17.4955ZM56.0157 9.08816V8.03501H61.817V9.08816H56.0157ZM70.1345 10.4983H76.739V11.6229H70.1345V10.4983ZM70.2773 16.2639H77.7922V17.4063H68.9564V4.91126H77.5244V6.05366H70.2773V16.2639ZM85.0561 7.94576C85.8177 7.94576 86.4841 8.09451 87.0553 8.39201C87.6384 8.67761 88.0906 9.11791 88.4119 9.71291C88.7451 10.3079 88.9117 11.0576 88.9117 11.962V17.4063H87.6444V12.087C87.6444 11.0993 87.3945 10.3555 86.8947 9.85571C86.4068 9.34401 85.7166 9.08816 84.8241 9.08816C84.1577 9.08816 83.5746 9.22501 83.0748 9.49871C82.5869 9.76051 82.2061 10.1473 81.9324 10.659C81.6706 11.1588 81.5397 11.7657 81.5397 12.4797V17.4063H80.2723V8.03501H81.4861V10.6054L81.2898 10.1235C81.5873 9.44516 82.0633 8.91561 82.7178 8.53481C83.3723 8.14211 84.1517 7.94576 85.0561 7.94576ZM91.978 17.4063V8.03501H93.1918V10.5876L93.0669 10.1413C93.3287 9.42731 93.769 8.88586 94.3878 8.51696C95.0066 8.13616 95.7741 7.94576 96.6904 7.94576V9.17741C96.6428 9.17741 96.5952 9.17741 96.5476 9.17741C96.5 9.16551 96.4524 9.15956 96.4048 9.15956C95.4171 9.15956 94.6436 9.46301 94.0843 10.0699C93.525 10.6649 93.2454 11.5158 93.2454 12.6225V17.4063H91.978ZM102.379 17.4955C101.474 17.4955 100.659 17.2932 99.9333 16.8886C99.2193 16.4721 98.654 15.9069 98.2375 15.1929C97.821 14.467 97.6128 13.6399 97.6128 12.7117C97.6128 11.7716 97.821 10.9446 98.2375 10.2306C98.654 9.51656 99.2193 8.95726 99.9333 8.55266C100.647 8.14806 101.462 7.94576 102.379 7.94576C103.307 7.94576 104.128 8.14806 104.842 8.55266C105.568 8.95726 106.133 9.51656 106.538 10.2306C106.954 10.9446 107.163 11.7716 107.163 12.7117C107.163 13.6399 106.954 14.467 106.538 15.1929C106.133 15.9069 105.568 16.4721 104.842 16.8886C104.116 17.2932 103.295 17.4955 102.379 17.4955ZM102.379 16.371C103.057 16.371 103.658 16.2222 104.182 15.9247C104.705 15.6153 105.116 15.1869 105.413 14.6395C105.723 14.0802 105.877 13.4376 105.877 12.7117C105.877 11.9739 105.723 11.3313 105.413 10.7839C105.116 10.2365 104.705 9.81406 104.182 9.51656C103.658 9.20716 103.063 9.05246 102.397 9.05246C101.73 9.05246 101.135 9.20716 100.612 9.51656C100.088 9.81406 99.6715 10.2365 99.3621 10.7839C99.0527 11.3313 98.898 11.9739 98.898 12.7117C98.898 13.4376 99.0527 14.0802 99.3621 14.6395C99.6715 15.1869 100.088 15.6153 100.612 15.9247C101.135 16.2222 101.724 16.371 102.379 16.371ZM109.393 17.4063V4.16156H110.66V17.4063H109.393ZM113.83 17.4063V4.16156H115.097V17.4063H113.83ZM122.247 17.4955C121.271 17.4955 120.414 17.2932 119.676 16.8886C118.939 16.4721 118.362 15.9069 117.945 15.1929C117.529 14.467 117.32 13.6399 117.32 12.7117C117.32 11.7835 117.517 10.9624 117.909 10.2484C118.314 9.53441 118.861 8.97511 119.552 8.57051C120.254 8.15401 121.039 7.94576 121.908 7.94576C122.788 7.94576 123.568 8.14806 124.246 8.55266C124.936 8.94536 125.478 9.50466 125.87 10.2306C126.263 10.9446 126.46 11.7716 126.46 12.7117C126.46 12.7712 126.454 12.8367 126.442 12.9081C126.442 12.9676 126.442 13.033 126.442 13.1044H118.284V12.1584H125.763L125.264 12.5332C125.264 11.8549 125.115 11.254 124.817 10.7304C124.532 10.1949 124.139 9.77836 123.639 9.48086C123.139 9.18336 122.562 9.03461 121.908 9.03461C121.265 9.03461 120.688 9.18336 120.176 9.48086C119.665 9.77836 119.266 10.1949 118.98 10.7304C118.695 11.2659 118.552 11.8787 118.552 12.5689V12.7653C118.552 13.4793 118.707 14.11 119.016 14.6574C119.337 15.1929 119.778 15.6153 120.337 15.9247C120.908 16.2222 121.557 16.371 122.283 16.371C122.854 16.371 123.383 16.2698 123.871 16.0675C124.371 15.8652 124.799 15.5558 125.156 15.1393L125.87 15.9604C125.454 16.4602 124.93 16.841 124.3 17.1028C123.681 17.3646 122.997 17.4955 122.247 17.4955ZM132.413 17.4955C131.52 17.4955 130.717 17.2932 130.003 16.8886C129.301 16.484 128.748 15.9247 128.343 15.2107C127.938 14.4848 127.736 13.6518 127.736 12.7117C127.736 11.7597 127.938 10.9267 128.343 10.2127C128.748 9.49871 129.301 8.94536 130.003 8.55266C130.717 8.14806 131.52 7.94576 132.413 7.94576C133.234 7.94576 133.966 8.13021 134.608 8.49911C135.263 8.86801 135.78 9.40946 136.161 10.1235C136.554 10.8256 136.75 11.6883 136.75 12.7117C136.75 13.7232 136.56 14.586 136.179 15.3C135.798 16.014 135.281 16.5614 134.626 16.9422C133.984 17.3111 133.246 17.4955 132.413 17.4955ZM132.502 16.371C133.168 16.371 133.763 16.2222 134.287 15.9247C134.823 15.6153 135.239 15.1869 135.537 14.6395C135.846 14.0802 136.001 13.4376 136.001 12.7117C136.001 11.9739 135.846 11.3313 135.537 10.7839C135.239 10.2365 134.823 9.81406 134.287 9.51656C133.763 9.20716 133.168 9.05246 132.502 9.05246C131.848 9.05246 131.258 9.20716 130.735 9.51656C130.211 9.81406 129.795 10.2365 129.485 10.7839C129.176 11.3313 129.021 11.9739 129.021 12.7117C129.021 13.4376 129.176 14.0802 129.485 14.6395C129.795 15.1869 130.211 15.6153 130.735 15.9247C131.258 16.2222 131.848 16.371 132.502 16.371ZM136.036 17.4063V14.586L136.161 12.6939L135.983 10.8018V4.16156H137.25V17.4063H136.036Z" fill="white"/>
<path d="M21.0447 12.7618L22.8988 4.60381C23.0327 4.01478 22.585 3.45388 21.9809 3.45388H6.57557L6.21606 1.69638C6.12648 1.25832 5.74102 0.943726 5.29386 0.943726H1.27255C0.75267 0.943726 0.331238 1.36516 0.331238 1.88503V2.51257C0.331238 3.03245 0.75267 3.45388 1.27255 3.45388H4.01344L6.76865 16.9238C6.1095 17.3029 5.66532 18.0137 5.66532 18.8286C5.66532 20.0416 6.64867 21.025 7.86171 21.025C9.07474 21.025 10.0581 20.0416 10.0581 18.8286C10.0581 18.2138 9.80524 17.6584 9.39824 17.2597H17.6208C17.2139 17.6584 16.961 18.2138 16.961 18.8286C16.961 20.0416 17.9444 21.025 19.1574 21.025C20.3704 21.025 21.3538 20.0416 21.3538 18.8286C21.3538 17.959 20.8483 17.2075 20.1152 16.8516L20.3316 15.8995C20.4655 15.3105 20.0178 14.7496 19.4137 14.7496H8.88605L8.62935 13.4945H20.1268C20.5664 13.4945 20.9474 13.1904 21.0447 12.7618Z" stroke="white" stroke-width="0.627539"/>
</svg>
